HIERARCHY
ROOT SpineBase
{
  OFFSET 0.000000 0.000000 0.000000
  CHANNELS 6 Xposition Yposition Zposition Zrotation Xrotation Yrotation
  JOINT SpineMid
  {
    OFFSET 0.000000 29.875529 0.000000
    CHANNELS 3 Zrotation Xrotation Yrotation
    JOINT SpineShoulder
    {
      OFFSET 0.202981 22.322719 -0.622169
      CHANNELS 3 Zrotation Xrotation Yrotation
      JOINT Neck
      {
        OFFSET 0.055284 7.408826 -0.504868
        CHANNELS 3 Zrotation Xrotation Yrotation
        JOINT Head
        {
          OFFSET -1.010213 14.564853 -0.478540
          CHANNELS 3 Zrotation Xrotation Yrotation
          End Site
          {
            OFFSET 0 0 0
          }
        }
      }
      JOINT ShoulderLeft
      {
        OFFSET -17.332664 -3.481166 3.238455
        CHANNELS 3 Zrotation Xrotation Yrotation
        JOINT ElbowLeft
        {
          OFFSET -3.984685 -23.605777 1.136242
          CHANNELS 3 Zrotation Xrotation Yrotation
          JOINT WristLeft
          {
            OFFSET -3.876305 -20.454358 -2.815425
            CHANNELS 3 Zrotation Xrotation Yrotation
            JOINT HandLeft
            {
              OFFSET -1.608059 -6.187295 0.409691
              CHANNELS 3 Zrotation Xrotation Yrotation
              JOINT HandTipLeft
              {
                OFFSET -0.705441 -5.107355 -1.263852
                CHANNELS 3 Zrotation Xrotation Yrotation
                End Site
                {
                  OFFSET 0 0 0
                }
              }
              JOINT ThumbLeft
              {
                OFFSET 1.243377 0.084959 -3.279482
                CHANNELS 3 Zrotation Xrotation Yrotation
                End Site
                {
                  OFFSET 0 0 0
                }
              }
            }
          }
        }
      }
      JOINT ShoulderRight
      {
        OFFSET 15.768656 -3.030658 -3.968226
        CHANNELS 3 Zrotation Xrotation Yrotation
        JOINT ElbowRight
        {
          OFFSET 3.169121 -24.072309 0.114491
          CHANNELS 3 Zrotation Xrotation Yrotation
          JOINT WristRight
          {
            OFFSET -1.139395 -21.307714 -6.801087
            CHANNELS 3 Zrotation Xrotation Yrotation
            JOINT HandRight
            {
              OFFSET -1.675938 -4.724241 -1.856585
              CHANNELS 3 Zrotation Xrotation Yrotation
              JOINT HandTipRight
              {
                OFFSET 0.795683 -4.530442 -2.353065
                CHANNELS 3 Zrotation Xrotation Yrotation
                End Site
                {
                  OFFSET 0 0 0
                }
              }
              JOINT ThumbRight
              {
                OFFSET -3.107937 1.583037 0.520085
                CHANNELS 3 Zrotation Xrotation Yrotation
                End Site
                {
                  OFFSET 0 0 0
                }
              }
            }
          }
        }
      }
    }
  }
  JOINT HipLeft
  {
    OFFSET -6.152828 0.422747 -1.873774
    CHANNELS 3 Zrotation Xrotation Yrotation
    JOINT KneeLeft
    {
      OFFSET -5.153824 -28.386015 -1.847137
      CHANNELS 3 Zrotation Xrotation Yrotation
      JOINT AnkleLeft
      {
        OFFSET -0.217977 -30.327366 5.912045
        CHANNELS 3 Zrotation Xrotation Yrotation
        JOINT FootLeft
        {
          OFFSET -1.193143 -3.232257 -9.798685
          CHANNELS 3 Zrotation Xrotation Yrotation
          End Site
          {
            OFFSET 0 0 0
          }
        }
      }
    }
  }
  JOINT HipRight
  {
    OFFSET 5.474435 1.064342 -5.044946
    CHANNELS 3 Zrotation Xrotation Yrotation
    JOINT KneeRight
    {
      OFFSET 6.166889 -25.888416 1.381506
      CHANNELS 3 Zrotation Xrotation Yrotation
      JOINT AnkleRight
      {
        OFFSET 2.290715 -32.447835 7.491865
        CHANNELS 3 Zrotation Xrotation Yrotation
        JOINT FootRight
        {
          OFFSET 0.551591 -6.438684 -5.337763
          CHANNELS 3 Zrotation Xrotation Yrotation
          End Site
          {
            OFFSET 0 0 0
          }
        }
      }
    }
  }
}
MOTION
Frames: 16
Frame Time: 0.033333
33.017335 66.907964 397.028190 3.862067 0.315549 9.610343 0.717397 -0.257427 -9.485763 0.059524 -0.089247 0.194682 -16.417032 3.470062 -0.115940 0.000000 0.000000 0.000000 -9.594489 -2.103772 -0.302035 15.151076 8.914128 -3.927340 -2.335181 17.082172 -4.575462 6.888562 -26.917985 8.011960 0.000000 0.000000 0.000000 0.000000 0.000000 0.000000 1.809551 3.033497 -0.046981 1.004404 -3.301773 -2.590945 18.988967 -3.924519 -6.293317 -18.580941 -16.176926 4.661134 0.000000 0.000000 0.000000 0.000000 0.000000 0.000000 -0.543203 -2.218266 -9.438246 0.531869 7.252768 0.393767 -0.859939 -33.191634 -0.545438 0.000000 0.000000 0.000000 -1.464425 -0.459425 -9.565204 6.342443 -2.440896 1.949198 -2.534693 3.091134 -7.019013 0.000000 0.000000 0.000000
33.004454 66.870628 397.014503 3.542608 0.585129 9.709818 0.553608 -0.184136 -9.610970 -0.008802 -0.034159 0.167726 -20.300365 5.767812 0.361626 0.000000 0.000000 0.000000 -9.132730 -2.101070 -0.360892 14.213814 10.372765 -4.022367 0.407591 15.969250 -4.425027 2.582267 -26.504377 6.870669 0.000000 0.000000 0.000000 0.000000 0.000000 0.000000 1.886485 3.182896 0.071101 1.097965 -3.420505 -2.547848 18.566436 -4.071676 -6.045159 -18.602543 -15.896784 4.713888 0.000000 0.000000 0.000000 0.000000 0.000000 0.000000 -0.311931 -2.034544 -9.634595 0.706238 6.360133 0.521676 -0.940789 -32.644804 -0.837876 0.000000 0.000000 0.000000 -1.199394 -0.869254 -9.688828 6.387943 -2.376989 1.972253 -3.015215 2.293164 -6.739980 0.000000 0.000000 0.000000
32.916924 66.853414 397.031246 2.646466 1.377740 9.868586 0.385485 -0.216298 -9.817044 -0.037534 -0.007710 0.122838 -22.141016 7.255068 0.751245 0.000000 0.000000 0.000000 -8.229480 -1.937014 -0.494613 12.394873 10.863994 -3.554503 3.277331 15.506874 -4.424098 -8.538836 -24.803005 3.998322 0.000000 0.000000 0.000000 0.000000 0.000000 0.000000 2.228321 3.317363 0.295263 1.284055 -3.348019 -2.536652 17.168957 -3.944361 -5.638664 -18.055116 -17.277470 4.662789 0.000000 0.000000 0.000000 0.000000 0.000000 0.000000 0.535896 -2.465869 -9.883451 0.842040 5.649427 0.671632 -1.132581 -32.221864 -1.236442 0.000000 0.000000 0.000000 -0.377788 -1.882198 -9.853352 6.333241 -2.327572 1.983449 -3.272894 2.381157 -6.545123 0.000000 0.000000 0.000000
32.917704 66.823050 397.022859 1.338604 2.578811 9.380331 0.280382 -0.300588 -9.374247 -0.055057 0.002583 0.066001 -24.025921 8.688735 1.176267 0.000000 0.000000 0.000000 -7.353456 -1.378650 -0.740603 11.509984 9.922789 -2.822636 6.961732 17.297583 -5.176086 -11.439484 -31.346104 4.185379 0.000000 0.000000 0.000000 0.000000 0.000000 0.000000 2.362586 3.416763 0.610759 1.851825 -3.245570 -2.511813 15.967175 -4.449720 -5.017309 -17.367831 -15.653639 4.654372 0.000000 0.000000 0.000000 0.000000 0.000000 0.000000 1.574198 -3.464638 -9.397501 1.068277 5.058400 0.770740 -1.196547 -32.361804 -1.156124 0.000000 0.000000 0.000000 0.775194 -3.384557 -9.330021 6.319648 -2.253434 2.000807 -3.651810 2.028306 -6.296282 0.000000 0.000000 0.000000
33.024197 66.769824 396.938496 -0.279646 4.001122 8.498546 0.204373 -0.394839 -8.513522 -0.068189 0.011231 -0.001746 -24.734257 10.001327 1.592271 0.000000 0.000000 0.000000 -5.749977 -0.683226 -0.960638 10.630020 9.121557 -2.266062 13.368267 17.603263 -5.271494 -19.477947 -33.187373 1.788453 0.000000 0.000000 0.000000 0.000000 0.000000 0.000000 2.466083 3.277982 0.966161 2.640048 -2.910912 -2.453120 14.388340 -2.997775 -5.435506 -16.010056 -17.535272 5.004082 0.000000 0.000000 0.000000 0.000000 0.000000 0.000000 2.872352 -4.839648 -8.400509 1.205143 4.596811 0.811909 -1.050804 -32.948108 -0.841955 0.000000 0.000000 0.000000 2.166446 -5.063635 -8.329527 6.329939 -2.256666 1.999420 -3.632978 2.145764 -6.258219 0.000000 0.000000 0.000000
33.173853 66.677302 396.697039 -2.067344 5.413471 7.725312 0.115778 -0.403430 -7.724794 -0.072948 0.054569 -0.076116 -24.010747 10.243204 1.696450 0.000000 0.000000 0.000000 -4.995150 -0.032868 -1.231978 10.706638 8.092107 -1.590065 22.050696 18.525682 -5.577058 -30.538425 -33.355391 -2.072463 0.000000 0.000000 0.000000 0.000000 0.000000 0.000000 2.041575 3.881780 1.443820 4.183443 -3.458987 -2.386548 13.080026 -1.289262 -6.057951 -12.987972 -20.595932 4.874113 0.000000 0.000000 0.000000 0.000000 0.000000 0.000000 4.444376 -6.251770 -7.407614 1.089492 4.118815 0.819775 -0.607539 -34.022644 -0.489040 0.000000 0.000000 0.000000 3.802691 -6.874396 -7.369157 6.204812 -2.125024 1.990801 -3.612295 2.455928 -6.107416 0.000000 0.000000 0.000000
33.569668 66.563682 396.537834 -3.971499 7.066976 6.194637 0.156191 -0.304293 -6.114335 -0.035491 0.137453 -0.142677 -22.980126 9.825943 1.556643 0.000000 0.000000 0.000000 -4.955960 0.137993 -1.580523 11.980184 7.039232 -0.928286 29.717029 16.288956 -3.856571 -38.880899 -30.211003 -4.663652 0.000000 0.000000 0.000000 0.000000 0.000000 0.000000 2.389660 3.849151 1.922542 4.395352 -3.804849 -2.244122 12.449887 -0.244568 -6.500269 -13.463383 -19.590248 6.011981 0.000000 0.000000 0.000000 0.000000 0.000000 0.000000 6.248015 -7.971450 -5.488905 0.737678 3.795755 0.745992 -0.005779 -34.469814 0.477805 0.000000 0.000000 0.000000 5.280112 -8.619925 -5.568552 6.438939 -2.163693 1.966828 -3.610901 2.565393 -5.869029 0.000000 0.000000 0.000000
34.122010 66.443387 396.447255 -5.732278 8.653986 4.282859 0.274197 -0.246034 -4.065646 0.022298 0.141847 -0.196973 -21.910547 8.669363 1.195854 0.000000 0.000000 0.000000 -5.468320 0.360697 -1.960725 13.997250 5.916806 -0.241025 32.710206 15.120020 -2.756014 -40.988700 -26.115777 -5.459573 0.000000 0.000000 0.000000 0.000000 0.000000 0.000000 2.728838 4.133952 2.408568 4.447497 -4.132146 -2.172840 10.989672 1.229931 -6.858169 -15.003094 -20.610287 7.304590 0.000000 0.000000 0.000000 0.000000 0.000000 0.000000 8.090721 -9.572627 -3.087346 0.246568 3.668295 0.620758 0.703472 -34.721407 1.768839 0.000000 0.000000 0.000000 6.807447 -9.884788 -3.261473 6.466089 -2.494519 1.862357 -3.614794 2.409538 -5.424296 0.000000 0.000000 0.000000
34.747220 66.338254 396.400020 -7.088137 9.975684 2.464356 0.454288 -0.205088 -2.088860 0.114855 0.094230 -0.228721 -22.072835 7.599531 0.797290 0.000000 0.000000 0.000000 -6.163369 0.802372 -2.325850 16.971159 5.463368 0.187973 35.308856 12.525404 -0.242517 -38.157225 -28.127684 -4.289501 0.000000 0.000000 0.000000 0.000000 0.000000 0.000000 2.493284 4.490016 2.786748 5.414582 -3.961005 -2.219395 8.966862 2.526642 -7.060240 -15.752065 -21.081485 8.380954 0.000000 0.000000 0.000000 0.000000 0.000000 0.000000 9.781153 -10.943721 -0.754909 -0.538372 3.798338 0.446836 1.486210 -34.331978 2.679838 0.000000 0.000000 0.000000 7.989112 -10.621920 -1.049515 6.468786 -2.977293 1.725951 -3.776053 1.900275 -4.821860 0.000000 0.000000 0.000000
35.434544 66.247341 396.401471 -7.798722 10.765053 0.993851 0.566175 -0.134922 -0.510343 0.171702 0.027629 -0.244522 -23.054299 6.875507 0.441657 0.000000 0.000000 0.000000 -7.638325 0.741649 -2.672075 20.292000 5.936560 0.350513 34.852801 11.877498 0.638412 -33.618496 -28.625184 -3.223197 0.000000 0.000000 0.000000 0.000000 0.000000 0.000000 2.651679 4.410314 2.968041 5.207843 -2.445496 -2.270471 8.246375 1.879667 -6.931786 -16.087399 -20.261896 9.045918 0.000000 0.000000 0.000000 0.000000 0.000000 0.000000 10.808260 -11.577532 1.023045 -1.385190 3.789866 0.296308 2.370738 -34.026201 3.646831 0.000000 0.000000 0.000000 7.750052 -10.799944 0.475773 7.138629 -3.435016 1.603854 -3.818170 1.406162 -4.248492 0.000000 0.000000 0.000000
36.119716 66.135027 396.555357 -7.710506 10.836447 -0.277923 0.569132 0.077514 0.771106 0.175147 -0.020767 -0.242005 -25.991296 8.158373 0.669516 0.000000 0.000000 0.000000 -9.890895 0.126068 -3.012883 24.392091 7.437609 0.007220 33.567080 9.771674 2.518172 -31.254725 -23.964233 -3.553296 0.000000 0.000000 0.000000 0.000000 0.000000 0.000000 2.829967 4.676360 3.050926 4.352332 -0.850516 -2.368229 8.347239 0.328582 -6.675783 -16.046033 -17.579386 9.676584 0.000000 0.000000 0.000000 0.000000 0.000000 0.000000 10.997613 -11.526819 2.322430 -2.229356 3.809670 0.150248 3.191341 -33.511214 4.529436 0.000000 0.000000 0.000000 7.900878 -10.699223 1.751358 6.485970 -3.363967 1.436688 -3.889993 -4.247410 -4.069292 0.000000 0.000000 0.000000
36.688290 66.018911 396.807093 -8.068587 11.190540 -1.047602 0.590852 0.064857 1.590547 0.222603 -0.116343 -0.251760 -26.721399 8.377022 0.700762 0.000000 0.000000 0.000000 -12.015382 -0.075617 -3.365617 27.711469 7.961189 0.091800 32.286651 8.983390 3.076142 -31.476631 -24.454504 -3.347603 0.000000 0.000000 0.000000 0.000000 0.000000 0.000000 3.462498 4.772802 3.173607 3.068761 1.085234 -2.396315 9.559852 -1.513764 -6.585287 -16.274015 -13.862619 10.553632 0.000000 0.000000 0.000000 0.000000 0.000000 0.000000 11.703723 -11.800135 3.275336 -3.210879 3.762533 0.020060 4.051379 -33.088548 5.007681 0.000000 0.000000 0.000000 8.776874 -9.757749 3.005433 5.506511 -4.329494 1.116054 -3.903833 -4.628012 -3.491660 0.000000 0.000000 0.000000
37.140534 65.919260 397.182710 -8.146352 11.232026 -1.549000 0.603303 -0.030586 2.095730 0.257604 -0.223685 -0.254883 -26.694168 8.521748 0.791090 0.000000 0.000000 0.000000 -14.177131 -0.319406 -3.630480 30.848272 8.681283 -0.045758 28.080791 9.575342 2.017534 -36.291404 -19.502795 -4.850718 0.000000 0.000000 0.000000 0.000000 0.000000 0.000000 3.892693 4.841870 3.182708 2.555789 1.866554 -2.445227 9.736070 -2.201801 -6.456039 -15.837192 -11.704048 10.803735 0.000000 0.000000 0.000000 0.000000 0.000000 0.000000 11.935207 -11.698619 3.799416 -3.843444 3.924379 -0.061769 4.640068 -32.904528 5.264740 0.000000 0.000000 0.000000 9.066613 -9.207722 3.677173 4.755711 -4.454788 0.877964 -3.286710 5.365426 -2.407002 0.000000 0.000000 0.000000
37.591296 65.797702 397.536064 -8.006814 11.030249 -2.255377 0.638448 -0.139495 2.775863 0.260293 -0.307191 -0.253141 -28.048139 9.225767 1.047837 0.000000 0.000000 0.000000 -15.927822 -0.215986 -3.760965 33.552282 9.406166 -0.293771 27.439799 8.901132 2.600533 -34.500049 -19.255346 -4.622076 0.000000 0.000000 0.000000 0.000000 0.000000 0.000000 3.511813 4.959074 3.093203 3.028966 2.094108 -2.426997 10.864833 -4.386203 -5.782606 -15.893817 -10.218945 10.259152 0.000000 0.000000 0.000000 0.000000 0.000000 0.000000 11.770526 -11.540914 4.453130 -4.301279 4.392151 -0.188890 5.273287 -32.709898 5.197092 0.000000 0.000000 0.000000 9.275139 -8.532546 4.464447 3.901963 -4.308090 0.655261 -3.029532 7.751829 -1.809494 0.000000 0.000000 0.000000
37.986433 65.687327 397.828209 -7.729791 10.563670 -2.668860 0.578203 -0.206366 3.128844 0.211598 -0.342262 -0.256093 -28.528671 9.938202 1.402082 0.000000 0.000000 0.000000 -16.399869 -0.005180 -3.649363 34.601603 10.080005 -0.658067 28.919205 7.994531 3.762155 -38.035757 -18.071104 -5.315821 0.000000 0.000000 0.000000 0.000000 0.000000 0.000000 2.928249 4.972603 2.953247 4.079554 0.681471 -2.335025 12.010371 -3.658992 -6.051408 -15.774756 -12.814094 9.393516 0.000000 0.000000 0.000000 0.000000 0.000000 0.000000 11.330157 -11.298828 4.752577 -4.641104 5.076963 -0.317496 5.862570 -32.649165 5.053226 0.000000 0.000000 0.000000 9.258522 -7.873027 4.832785 3.150375 -3.906576 0.489222 -2.537474 13.145216 -1.253124 0.000000 0.000000 0.000000
38.318479 65.602479 398.059861 -7.414669 9.913909 -2.877963 0.464070 -0.163440 3.267621 0.133198 -0.287219 -0.259140 -28.291461 10.158343 1.585642 0.000000 0.000000 0.000000 -17.115709 0.112139 -3.572300 35.259444 10.657215 -0.894290 30.143517 6.133436 5.424035 -42.292845 -15.343158 -5.696893 0.000000 0.000000 0.000000 0.000000 0.000000 0.000000 2.066165 5.146779 2.844858 5.447280 -1.730462 -2.169637 13.857907 -4.087226 -5.898613 -15.321859 -13.490489 8.039624 0.000000 0.000000 0.000000 0.000000 0.000000 0.000000 10.776975 -10.879150 4.802326 -4.896454 5.772074 -0.423553 6.372057 -32.620833 4.917072 0.000000 0.000000 0.000000 9.071354 -7.295982 4.893531 2.676264 -3.289160 0.419207 -2.032601 19.751121 -0.834127 0.000000 0.000000 0.000000
